<?xml version="1.0" encoding="utf-8"?>
<!-- Generator: Adobe Illustrator 23.1.1, SVG Export Plug-In . SVG Version: 6.00 Build 0)  -->
<svg version="1.1" id="Layer_1" xmlns="http://www.w3.org/2000/svg" xmlns:xlink="http://www.w3.org/1999/xlink" x="0px" y="0px"
	 viewBox="0 0 566.9 566.9" style="enable-background:new 0 0 566.9 566.9;" xml:space="preserve">
<style type="text/css">
	.st0{fill:#FFFFFF;}
	.st1{clip-path:url(#SVGID_2_);fill:none;}
	.st2{clip-path:url(#SVGID_4_);fill:none;stroke:#ED1C24;stroke-width:4.2513;stroke-miterlimit:10;}
	.st3{clip-path:url(#SVGID_6_);fill:none;}
	.st4{clip-path:url(#SVGID_8_);fill:none;stroke:#ED1C24;stroke-width:4.2513;stroke-miterlimit:10;}
	.st5{clip-path:url(#SVGID_10_);fill:#ED1C24;}
	.st6{clip-path:url(#SVGID_12_);fill:#ED1C24;}
	.st7{clip-path:url(#SVGID_14_);fill:#ED1C24;}
	.st8{clip-path:url(#SVGID_16_);fill:#ED1C24;}
	.st9{clip-path:url(#SVGID_18_);fill:#ED1C24;}
	.st10{clip-path:url(#SVGID_20_);fill:#ED1C24;}
	.st11{clip-path:url(#SVGID_22_);fill:#ED1C24;}
	.st12{clip-path:url(#SVGID_24_);fill:#ED1C24;}
	.st13{clip-path:url(#SVGID_26_);fill:#ED1C24;}
	.st14{clip-path:url(#SVGID_28_);fill:#ED1C24;}
	.st15{clip-path:url(#SVGID_30_);fill:#ED1C24;}
	.st16{clip-path:url(#SVGID_32_);fill:#ED1C24;}
	.st17{clip-path:url(#SVGID_34_);fill:#ED1C24;}
	.st18{clip-path:url(#SVGID_36_);fill:#ED1C24;}
	.st19{clip-path:url(#SVGID_38_);fill:#ED1C24;}
	.st20{clip-path:url(#SVGID_40_);fill:#ED1C24;}
	.st21{clip-path:url(#SVGID_42_);fill:#ED1C24;}
	.st22{clip-path:url(#SVGID_44_);fill:#ED1C24;}
	.st23{clip-path:url(#SVGID_46_);fill:#ED1C24;}
	.st24{clip-path:url(#SVGID_48_);fill:#ED1C24;}
	.st25{clip-path:url(#SVGID_50_);fill:#ED1C24;}
	.st26{clip-path:url(#SVGID_52_);fill:#ED1C24;}
	.st27{clip-path:url(#SVGID_54_);fill:#ED1C24;}
	.st28{clip-path:url(#SVGID_56_);fill:#ED1C24;}
	.st29{clip-path:url(#SVGID_58_);fill:#ED1C24;}
	.st30{clip-path:url(#SVGID_60_);fill:none;}
</style>
<rect class="st0" width="566.9" height="566.9"/>
<g>
	<g>
		<defs>
			<rect id="SVGID_1_" x="42.4" y="42.4" width="482" height="482"/>
		</defs>
		<clipPath id="SVGID_2_">
			<use xlink:href="#SVGID_1_"  style="overflow:visible;"/>
		</clipPath>
		<path class="st1" d="M283.4,502c-120.7,0-218.5-97.9-218.5-218.5S162.8,65,283.4,65s218.5,97.9,218.5,218.5S404.1,502,283.4,502"
			/>
	</g>
	<g>
		<defs>
			<rect id="SVGID_3_" x="42.4" y="42.4" width="482" height="482"/>
		</defs>
		<clipPath id="SVGID_4_">
			<use xlink:href="#SVGID_3_"  style="overflow:visible;"/>
		</clipPath>
		<circle class="st2" cx="283.4" cy="283.5" r="218.5"/>
	</g>
	<g>
		<defs>
			<rect id="SVGID_5_" x="42.4" y="42.4" width="482" height="482"/>
		</defs>
		<clipPath id="SVGID_6_">
			<use xlink:href="#SVGID_5_"  style="overflow:visible;"/>
		</clipPath>
		<path class="st3" d="M283.4,481.6c-109.4,0-198.1-88.7-198.1-198.1S174,85.4,283.4,85.4s198.1,88.7,198.1,198.1
			S392.8,481.6,283.4,481.6"/>
	</g>
	<g>
		<defs>
			<rect id="SVGID_7_" x="42.4" y="42.4" width="482" height="482"/>
		</defs>
		<clipPath id="SVGID_8_">
			<use xlink:href="#SVGID_7_"  style="overflow:visible;"/>
		</clipPath>
		<circle class="st4" cx="283.4" cy="283.5" r="198.1"/>
	</g>
	<g>
		<defs>
			<rect id="SVGID_9_" x="42.4" y="42.4" width="482" height="482"/>
		</defs>
		<clipPath id="SVGID_10_">
			<use xlink:href="#SVGID_9_"  style="overflow:visible;"/>
		</clipPath>
		<path class="st5" d="M283.7,189.1c4-2.6,9.8-6,17.1-8.9c15-6.1,27.5-7,36.1-7.6c8.4-0.5,20.1-0.5,33.8,2c0.3,0.1,0.9,0.3,1.4,0.9
			c0.4,0.5,0.1,1.2,0.1,1.2v16.1c0,0,0.5,1.3,1.9,1h15.9c0,0.3,1.8,0,2.1,2.3c2.3,13.1,2.4,24.1,2,32.2c-0.6,10.2-1.6,26.3-10.3,44
			c-2.3,4.6-4.5,8.2-6.1,10.7c-2.5,3.7-7.8,10.6-17.3,15.7c-9.9,5.3-19,5.9-23.7,5.8v-4.2c4.4,0,12.7-0.7,21.4-5.4
			c9.4-5,14.7-12,16.9-15.5c1.1-1.6,2.6-4,4.3-7c9.1-16.8,10.1-32.6,10.7-43.7c0.4-7.3,0.3-17.3-1.5-29.2c0-0.2-0.1-0.4-0.3-0.8
			c-0.3-0.4-1.3-0.9-1.3-0.9h-16c0,0-2.4,0.2-2-2.2v-15.9c-0.3-0.3-0.4-0.8-0.7-1c0,0-0.4-0.4-1.2-0.6c-1-0.2-44-6.7-71.8,8.8
			c-1.6,0.9-8.8,5-8.4,4.8L283.7,189.1z"/>
	</g>
	<g>
		<defs>
			<rect id="SVGID_11_" x="42.4" y="42.4" width="482" height="482"/>
		</defs>
		<clipPath id="SVGID_12_">
			<use xlink:href="#SVGID_11_"  style="overflow:visible;"/>
		</clipPath>
		<path class="st6" d="M297.4,203.8c3.3-1.8,8.2-4.2,14.2-6c10.8-3.4,19.7-3.7,25.8-3.8c5.4-0.1,12.5,0.1,20.9,1.5
			c0.1,0,0.3,0,0.4,0.1c0.3,0.2,0.5,0.7,0.5,1.3c0.1,1,0.1,4.8,0,9.9c0,0,0,0.2,0.1,0.3c0.1,0.1,0.2,0.2,0.3,0.2s0.2,0,0.3,0
			c0.1,0,0.3,0,0.3,0c1.4-0.2,8.1-0.1,9.3,0c0.1,0,0.3,0,0.5,0.1c0.2,0.1,0.3,0.2,0.5,0.3c0,0,0.4,0.3,0.5,1.1
			c4.5,30.6-3.1,49.2-3.1,49.2c-1.4,3.6-3.8,8.7-7.6,14.5c-1.5,2.2-5,6.6-11.1,9.7c-5.2,2.6-10,3-12.7,3.1c0-1.4,0-2.8,0-4.2
			c2.2-0.1,5.3-0.4,8.7-1.7c6.2-2.4,9.9-6.6,11.4-8.8c1.9-2.7,4.3-6.8,6.5-12c4.2-10.2,4.7-19,5-26.7c0.3-4.9,0.3-11.6-0.8-19.4
			c0-0.3-0.1-0.5-0.3-0.8c-0.2-0.2-0.4-0.3-0.9-0.3c-1.2-0.1-9.8,0-9.8,0s-0.3,0-0.7-0.3c-0.5-0.3-0.7-0.9-0.8-1.2
			c-0.5-2,0.6-8.9-0.4-9.9c-0.2-0.2-0.3-0.3-0.3-0.3s-0.6-0.4-1.4-0.6c-12.8-2.5-28,0-28,0c-6.5,1.1-10.3,1.7-15.4,3.6
			c-4.3,1.5-7.8,3.3-10.3,4.7C298.7,206.2,298,205,297.4,203.8"/>
	</g>
	<g>
		<defs>
			<rect id="SVGID_13_" x="42.4" y="42.4" width="482" height="482"/>
		</defs>
		<clipPath id="SVGID_14_">
			<use xlink:href="#SVGID_13_"  style="overflow:visible;"/>
		</clipPath>
		<path class="st7" d="M378,282c2.6,4.1,6,9.9,9.1,17.3c6.2,15.2,7.1,28.1,7.7,36.6c0.5,8.5,0.5,20.4-2,34.4
			c-0.1,0.3-0.3,0.9-0.9,1.5c-0.5,0.4-1,0.6-1.3,0.6H374c0,0-1.3-0.3-0.9,1.1v15.9c-0.4,0-0.3,1.8-2.5,2.1
			c-13.1,2.3-24.1,2.4-32.2,2c-10.2-0.6-26.3-1.6-44-10.3c-4.6-2.3-8.2-4.5-10.7-6.1c-3.7-2.5-10.6-7.8-15.7-17.3
			c-5.3-9.9-5.9-19-5.8-23h4.2c0,3.7,0.7,11.8,5.4,20.7c5,9.4,12,14.7,15.5,16.9c1.6,1.1,4,2.6,7,4.3c16.8,9.1,32.6,10.1,43.7,10.7
			c7.3,0.4,17.3,0.3,29.2-1.5c0.2,0,0.4-0.1,0.8-0.3c0.4-0.3,1-1.3,1-1.3v-15.7c0,0-0.1-2.4,2.4-2.4h16.2c0.3,0,0.8-0.1,1.1-0.4
			c0,0,0.5-0.4,0.6-1.2c0.2-1,6.8-44.6-8.9-73c-0.9-1.6-5.1-8.9-4.9-8.6L378,282z"/>
	</g>
	<g>
		<defs>
			<rect id="SVGID_15_" x="42.4" y="42.4" width="482" height="482"/>
		</defs>
		<clipPath id="SVGID_16_">
			<use xlink:href="#SVGID_15_"  style="overflow:visible;"/>
		</clipPath>
		<path class="st8" d="M362.9,297c1.8,3.3,4.2,8.2,6,14.2c3.4,10.8,3.7,19.7,3.8,25.8c0.1,5.4-0.1,12.5-1.5,20.9
			c0,0.1,0,0.3-0.1,0.4c-0.2,0.3-0.7,0.5-1.3,0.5c-1,0.1-4.8,0.1-9.9,0c0,0-0.2,0-0.3,0.1c-0.1,0.1-0.2,0.2-0.2,0.3
			c0,0.1,0,0.2,0,0.3c0,0.1,0,0.3,0,0.3c0.2,1.4,0.1,8.1,0,9.3c0,0.1,0,0.3-0.1,0.5c-0.1,0.2-0.2,0.3-0.3,0.5c0,0-0.3,0.4-1.1,0.5
			c-30.6,4.6-49.2-3.1-49.2-3.1c-3.6-1.4-8.7-3.8-14.5-7.6c0,0-6-3.9-9.7-11.1c-2-3.7-2.6-7.1-2.7-7.7c-0.3-2-0.4-3.7-0.4-4.9
			c1.4,0,2.7,0,4.2,0c0.1,1,0.2,2.4,0.4,3.9c0,0,0.5,2.5,1.4,4.8c1.2,3,3.7,7.9,8.8,11.4c2.7,1.9,6.8,4.3,12,6.5
			c10.2,4.2,19,4.7,26.7,5c4.9,0.3,11.6,0.3,19.4-0.8c0.3,0,0.5-0.1,0.8-0.3c0.2-0.2,0.3-0.4,0.3-0.9c0.1-1.2,0-9.8,0-9.8
			s0-0.3,0.3-0.7c0.3-0.5,0.9-0.7,1.2-0.8c2-0.5,8.9,0.6,9.9-0.4c0.2-0.2,0.3-0.3,0.3-0.3s0.4-0.6,0.6-1.4c2.5-12.8,0-28,0-28
			c-1.1-6.5-1.7-10.3-3.6-15.4c-1.5-4.3-3.3-7.8-4.7-10.3L362.9,297z"/>
	</g>
	<g>
		<defs>
			<rect id="SVGID_17_" x="42.4" y="42.4" width="482" height="482"/>
		</defs>
		<clipPath id="SVGID_18_">
			<use xlink:href="#SVGID_17_"  style="overflow:visible;"/>
		</clipPath>
		<path class="st9" d="M284.9,377.1c-4.1,2.6-9.9,6-17.3,8.9c-15.2,6.1-28.1,7-36.6,7.6c-8.5,0.5-20.4,0.5-34.4-2
			c-0.3-0.1-0.9-0.3-1.5-0.9c-0.4-0.5-0.6-0.9-0.6-1.2v-16.3c0,0,0.2-1.3-1.2-0.8h-15.9c0-0.5-1.8-0.3-2.1-2.6
			c-2.3-13.1-2.4-24.2-2-32.2c0.6-10.2,1.6-26.3,10.3-44c2.3-4.6,4.5-8.2,6.1-10.7c2.5-3.7,7.8-10.6,17.3-15.7
			c9.9-5.3,19-5.9,23-5.8v4.2c-3.7,0-11.9,0.7-20.7,5.4c-9.4,5-14.7,12-16.9,15.5c-1.1,1.6-2.6,4-4.3,7
			c-9.1,16.8-10.1,32.6-10.7,43.7c-0.4,7.3-0.3,17.3,1.5,29.2c0,0.2,0.1,0.4,0.3,0.8c0.3,0.4,1.3,1.1,1.3,1.1h15.8
			c0,0,2.4-0.1,2.4,2.4v15.9c0,0.3,0.1,0.8,0.4,1c0,0,0.4,0.4,1.2,0.6c1,0.2,44.6,6.7,73-8.8c1.6-0.9,8.9-5,8.6-4.8L284.9,377.1z"/>
	</g>
	<g>
		<defs>
			<rect id="SVGID_19_" x="42.4" y="42.4" width="482" height="482"/>
		</defs>
		<clipPath id="SVGID_20_">
			<use xlink:href="#SVGID_19_"  style="overflow:visible;"/>
		</clipPath>
		<path class="st10" d="M206.6,358.7c-1.4,0.2-8.1,0.1-9.3,0c-0.1,0-0.3,0-0.5-0.1c-0.2-0.1-0.3-0.2-0.5-0.3c0,0-0.4-0.3-0.5-1.1
			c-4.6-30.6,3.1-49.2,3.1-49.2c1.4-3.6,3.8-8.7,7.6-14.5c1.5-2.2,5-6.6,11.1-9.7c5.2-2.6,10-3,12.7-3.1c0,1.4,0,2.8,0,4.2
			c-2.2,0.1-5.3,0.4-8.7,1.7c-6.2,2.4-9.9,6.6-11.4,8.8c-1.9,2.7-4.3,6.8-6.5,12c-4.2,10.2-4.7,19-5,26.7
			c-0.3,4.9-0.3,11.6,0.8,19.4c0,0.3,0.1,0.5,0.3,0.8c0.2,0.2,0.4,0.3,0.9,0.3c1.2,0.1,9.8,0,9.8,0s0.3,0,0.7,0.3
			c0.5,0.3,0.7,0.9,0.8,1.2c0.5,2-0.6,8.9,0.4,9.9c0.2,0.2,0.3,0.3,0.3,0.3s0.6,0.4,1.4,0.6c12.8,2.5,28,0,28,0
			c6.5-1.1,10.3-1.7,15.4-3.6c4.3-1.5,7.8-3.3,10.3-4.7c0.7,1.2,1.3,2.4,2,3.6c-3.3,1.8-8.2,4.2-14.2,6c-10.8,3.4-19.7,3.7-25.8,3.8
			c-5.4,0.1-12.5-0.1-20.8-1.5c-0.2,0-0.3,0-0.4-0.1c-0.3-0.2-0.5-0.7-0.5-1.3c-0.1-1-0.1-4.8,0-9.9c0-0.1,0-0.2-0.1-0.3
			c-0.1-0.1-0.2-0.2-0.3-0.2"/>
	</g>
	<g>
		<defs>
			<rect id="SVGID_21_" x="42.4" y="42.4" width="482" height="482"/>
		</defs>
		<clipPath id="SVGID_22_">
			<use xlink:href="#SVGID_21_"  style="overflow:visible;"/>
		</clipPath>
		<path class="st11" d="M189.8,284.5c-2.6-4.1-6.2-10.1-9.3-17.6c-6.2-15.2-7.1-28.1-7.7-36.6c-0.5-8.5-0.5-20.4,2-34.4
			c0.1-0.3,0.3-0.9,0.9-1.5c0.5-0.4,1-0.6,1.3-0.6h16.2c0,0,1.3,0.1,1.4-1.3v-15.9c-0.1,0-0.3-1.8,2-2.1c13.1-2.3,24.1-2.4,32.2-2
			c10.2,0.6,26.3,1.6,44,10.3c4.6,2.3,8.2,4.5,10.7,6.1c3.7,2.5,10.6,7.8,15.7,17.3c5.3,9.9,5.9,19,5.8,23.2h-4.2
			c0-3.9-0.7-12.1-5.4-20.9c-5-9.4-12-14.7-15.5-16.9c-1.6-1.1-4-2.6-7-4.3c-16.8-9.1-32.6-10.1-43.7-10.7
			c-7.3-0.4-17.3-0.3-29.2,1.5c-0.2,0-0.4,0.1-0.8,0.3c-0.4,0.3-0.6,1.3-0.6,1.3v16c0,0,0.1,2.4-2.4,2.4h-16.2
			c-0.3,0-0.8,0.1-1.1,0.4c0,0-0.5,0.4-0.6,1.2c-0.2,1-6.8,44.6,8.9,73c0.9,1.6,5.1,8.9,4.9,8.6L189.8,284.5z"/>
	</g>
	<g>
		<defs>
			<rect id="SVGID_23_" x="42.4" y="42.4" width="482" height="482"/>
		</defs>
		<clipPath id="SVGID_24_">
			<use xlink:href="#SVGID_23_"  style="overflow:visible;"/>
		</clipPath>
		<path class="st12" d="M204.2,269c-1.8-3.3-4.2-8.2-6-14.2c-3.4-10.8-3.7-19.7-3.8-25.8c-0.1-5.4,0.1-12.5,1.5-20.9
			c0-0.1,0-0.3,0.1-0.4c0.2-0.3,0.7-0.5,1.3-0.5c1-0.1,4.8-0.1,9.9,0c0.1,0,0.2,0,0.3-0.1c0.1-0.1,0.2-0.2,0.2-0.3
			c0-0.1,0-0.2,0-0.3c0-0.1,0-0.3,0-0.3c-0.2-1.4-0.1-8.1,0-9.3c0-0.1,0-0.3,0.1-0.5c0.1-0.2,0.2-0.3,0.3-0.5c0,0,0.3-0.4,1.1-0.5
			c30.6-4.6,49.2,3.1,49.2,3.1c3.6,1.4,8.7,3.8,14.5,7.6c2.2,1.5,6.6,5,9.7,11.1c2.6,5.2,3,10,3.1,12.7c-1.4,0-2.7,0.1-4.1,0.1
			c-0.1-1-0.2-2.4-0.5-4c0,0-0.4-2.6-1.4-4.8c-2.4-6.2-6.6-9.9-8.8-11.4c-2.7-1.9-6.8-4.3-12-6.5c-10.2-4.2-19-4.7-26.7-5
			c-4.9-0.3-11.6-0.3-19.4,0.8c-0.3,0-0.5,0.1-0.8,0.3c-0.2,0.2-0.3,0.4-0.3,0.9c-0.1,1.2,0,9.8,0,9.8s0,0.3-0.3,0.7
			c-0.3,0.5-0.9,0.7-1.2,0.8c-2,0.5-8.9-0.6-9.9,0.4c-0.2,0.2-0.3,0.3-0.3,0.3s-0.4,0.6-0.6,1.4c-2.5,12.8,0,28,0,28
			c1.1,6.5,1.7,10.3,3.6,15.4c1.5,4.3,3.3,7.8,4.7,10.3C206.6,267.7,205.4,268.3,204.2,269"/>
	</g>
	<g>
		<defs>
			<rect id="SVGID_25_" x="42.4" y="42.4" width="482" height="482"/>
		</defs>
		<clipPath id="SVGID_26_">
			<use xlink:href="#SVGID_25_"  style="overflow:visible;"/>
		</clipPath>
		<path class="st13" d="M305,229.7c-0.1,10.7-0.2,21.4-0.3,32.1h31.7c4.4,0,4.6,4.2,0,4.1c-12,0-24,0-35.9,0
			c0.1-12.1,0.2-24.2,0.3-36.3C302.3,229.7,303.6,229.7,305,229.7"/>
	</g>
	<g>
		<defs>
			<rect id="SVGID_27_" x="42.4" y="42.4" width="482" height="482"/>
		</defs>
		<clipPath id="SVGID_28_">
			<use xlink:href="#SVGID_27_"  style="overflow:visible;"/>
		</clipPath>
		<path class="st14" d="M303.6,281.2c10.9,0,21.8-0.1,32.6-0.1c2.1,0,5.2-0.3,8.5-1.5c6.5-2.4,10.3-6.9,11.8-8.9
			c-1.4-0.7-3.1-1.3-4.8-1.9c-5.7-2-11-2.6-15.2-2.7V262c5.2,0.2,12,1.1,19.3,4c2.4,0.9,4.6,2,6.5,3.1c-1.2,2.4-4.5,8.3-11.6,12.3
			c-5.9,3.4-11.5,3.7-14.1,3.7c-11,0-22,0.1-33,0.1"/>
	</g>
	<g>
		<defs>
			<rect id="SVGID_29_" x="42.4" y="42.4" width="482" height="482"/>
		</defs>
		<clipPath id="SVGID_30_">
			<use xlink:href="#SVGID_29_"  style="overflow:visible;"/>
		</clipPath>
		<path class="st15" d="M337.2,304.6c-10.7-0.1-21.4-0.2-32.1-0.3V336c0,4.4-4.2,4.6-4.1,0c0-12,0-24,0-35.9
			c12.1,0.1,24.2,0.2,36.3,0.3C337.2,301.8,337.2,303.2,337.2,304.6"/>
	</g>
	<g>
		<defs>
			<rect id="SVGID_31_" x="42.4" y="42.4" width="482" height="482"/>
		</defs>
		<clipPath id="SVGID_32_">
			<use xlink:href="#SVGID_31_"  style="overflow:visible;"/>
		</clipPath>
		<path class="st16" d="M285.4,302.9c0,10.9,0.1,21.8,0.1,32.6c0,2.1,0.3,5.2,1.5,8.5c2.4,6.5,6.9,10.3,8.9,11.8
			c0.7-1.4,1.3-3.1,1.9-4.8c2-5.7,2.6-11,2.7-15.2h4.1c-0.2,5.2-1.1,12-4,19.3c-0.9,2.4-2,4.6-3.1,6.5c-2.4-1.2-8.3-4.5-12.3-11.6
			c-3.4-5.9-3.7-11.5-3.7-14.1c0-11-0.1-22-0.1-33"/>
	</g>
	<g>
		<defs>
			<rect id="SVGID_33_" x="42.4" y="42.4" width="482" height="482"/>
		</defs>
		<clipPath id="SVGID_34_">
			<use xlink:href="#SVGID_33_"  style="overflow:visible;"/>
		</clipPath>
		<path class="st17" d="M230.4,261.4c10.7,0.1,21.4,0.2,32.1,0.3v-31.7c0-4.4,4.2-4.6,4.1,0c0,12,0,24,0,35.9
			c-12.1-0.1-24.2-0.2-36.3-0.3C230.4,264.1,230.4,262.7,230.4,261.4"/>
	</g>
	<g>
		<defs>
			<rect id="SVGID_35_" x="42.4" y="42.4" width="482" height="482"/>
		</defs>
		<clipPath id="SVGID_36_">
			<use xlink:href="#SVGID_35_"  style="overflow:visible;"/>
		</clipPath>
		<path class="st18" d="M281.7,262.5c0-10.9-0.1-21.7-0.1-32.6c0-2.1-0.3-5.2-1.4-8.5c-2.3-6.5-6.7-10.3-8.8-11.8
			c-0.7,1.4-1.3,3.1-1.9,4.8c-1.9,5.7-2.6,11-2.6,15.2c-1.4,0-2.7,0-4,0c0.2-5.2,1.1-12,4-19.3c0.9-2.4,2-4.6,3.1-6.5
			c2.4,1.2,8.2,4.5,12.2,11.6c3.3,5.9,3.7,11.5,3.7,14.1c0,11,0.1,22,0.1,33"/>
	</g>
	<g>
		<defs>
			<rect id="SVGID_37_" x="42.4" y="42.4" width="482" height="482"/>
		</defs>
		<clipPath id="SVGID_38_">
			<use xlink:href="#SVGID_37_"  style="overflow:visible;"/>
		</clipPath>
		<path class="st19" d="M262.2,336.5c0.1-10.7,0.2-21.4,0.3-32.1h-31.7c-4.4,0-4.6-4.2,0-4.1c12,0,24,0,35.9,0
			c-0.1,12.1-0.2,24.2-0.3,36.3C265,336.5,263.5,336.5,262.2,336.5"/>
	</g>
	<g>
		<defs>
			<rect id="SVGID_39_" x="42.4" y="42.4" width="482" height="482"/>
		</defs>
		<clipPath id="SVGID_40_">
			<use xlink:href="#SVGID_39_"  style="overflow:visible;"/>
		</clipPath>
		<path class="st20" d="M264.1,284.8c-10.9,0-21.8,0.1-32.6,0.1c-2.1,0-5.2,0.3-8.5,1.5c-6.5,2.4-10.3,6.9-11.8,8.9
			c1.4,0.7,3.1,1.3,4.8,1.9c5.7,2,11,2.6,15.2,2.7c0,1.4,0,2.7,0,4.1c-5.2-0.2-12-1.1-19.3-4c-2.4-0.9-4.6-2-6.5-3.1
			c1.2-2.4,4.5-8.3,11.6-12.3c5.9-3.4,11.5-3.7,14.1-3.7c11,0,22-0.1,33-0.1"/>
	</g>
	<g>
		<defs>
			<rect id="SVGID_41_" x="42.4" y="42.4" width="482" height="482"/>
		</defs>
		<clipPath id="SVGID_42_">
			<use xlink:href="#SVGID_41_"  style="overflow:visible;"/>
		</clipPath>
		<rect x="282.1" y="261.8" class="st21" width="23" height="4.3"/>
	</g>
	<g>
		<defs>
			<rect id="SVGID_43_" x="42.4" y="42.4" width="482" height="482"/>
		</defs>
		<clipPath id="SVGID_44_">
			<use xlink:href="#SVGID_43_"  style="overflow:visible;"/>
		</clipPath>
		<polygon class="st22" points="305.1,304.3 305,281.4 300.8,281.4 300.8,304.3 		"/>
	</g>
	<g>
		<defs>
			<rect id="SVGID_45_" x="42.4" y="42.4" width="482" height="482"/>
		</defs>
		<clipPath id="SVGID_46_">
			<use xlink:href="#SVGID_45_"  style="overflow:visible;"/>
		</clipPath>
		<polygon class="st23" points="285.5,306 285.5,300.1 265.1,300.1 265.1,304.3 284.7,304.3 284.7,306 		"/>
	</g>
	<g>
		<defs>
			<rect id="SVGID_47_" x="42.4" y="42.4" width="482" height="482"/>
		</defs>
		<clipPath id="SVGID_48_">
			<use xlink:href="#SVGID_47_"  style="overflow:visible;"/>
		</clipPath>
		<rect x="262.6" y="264.4" class="st24" width="4.3" height="20.4"/>
	</g>
	<g>
		<defs>
			<rect id="SVGID_49_" x="42.4" y="42.4" width="482" height="482"/>
		</defs>
		<clipPath id="SVGID_50_">
			<use xlink:href="#SVGID_49_"  style="overflow:visible;"/>
		</clipPath>
		<path class="st25" d="M283.8,291.6c-4.7,0-8.5-3.8-8.5-8.5s3.8-8.5,8.5-8.5s8.5,3.8,8.5,8.5S288.5,291.6,283.8,291.6"/>
	</g>
	<g>
		<defs>
			<rect id="SVGID_51_" x="42.4" y="42.4" width="482" height="482"/>
		</defs>
		<clipPath id="SVGID_52_">
			<use xlink:href="#SVGID_51_"  style="overflow:visible;"/>
		</clipPath>
		<path class="st26" d="M186.9,190.4c-2.4,0-4.3-1.9-4.3-4.3s1.9-4.3,4.3-4.3s4.3,1.9,4.3,4.3S189.3,190.4,186.9,190.4"/>
	</g>
	<g>
		<defs>
			<rect id="SVGID_53_" x="42.4" y="42.4" width="482" height="482"/>
		</defs>
		<clipPath id="SVGID_54_">
			<use xlink:href="#SVGID_53_"  style="overflow:visible;"/>
		</clipPath>
		<path class="st27" d="M186.9,384.2c-2.4,0-4.3-1.9-4.3-4.3c0-2.4,1.9-4.3,4.3-4.3s4.3,1.9,4.3,4.3
			C191.2,382.4,189.3,384.2,186.9,384.2"/>
	</g>
	<g>
		<defs>
			<rect id="SVGID_55_" x="42.4" y="42.4" width="482" height="482"/>
		</defs>
		<clipPath id="SVGID_56_">
			<use xlink:href="#SVGID_55_"  style="overflow:visible;"/>
		</clipPath>
		<path class="st28" d="M381.6,385.1c-2.4,0-4.3-1.9-4.3-4.3s1.9-4.3,4.3-4.3s4.3,1.9,4.3,4.3S384,385.1,381.6,385.1"/>
	</g>
	<g>
		<defs>
			<rect id="SVGID_57_" x="42.4" y="42.4" width="482" height="482"/>
		</defs>
		<clipPath id="SVGID_58_">
			<use xlink:href="#SVGID_57_"  style="overflow:visible;"/>
		</clipPath>
		<path class="st29" d="M381.6,189.5c-2.4,0-4.3-1.9-4.3-4.3s1.9-4.3,4.3-4.3s4.3,1.9,4.3,4.3S384,189.5,381.6,189.5"/>
	</g>
	<g>
		<defs>
			<rect id="SVGID_59_" x="42.4" y="42.4" width="482" height="482"/>
		</defs>
		<clipPath id="SVGID_60_">
			<use xlink:href="#SVGID_59_"  style="overflow:visible;"/>
		</clipPath>
		<path class="st30" d="M283.8,286.5c-1.9,0-3.4-1.5-3.4-3.4s1.5-3.4,3.4-3.4s3.4,1.5,3.4,3.4S285.7,286.5,283.8,286.5"/>
	</g>
</g>
</svg>
