<svg xmlns="http://www.w3.org/2000/svg" width="33.79" height="15.753" viewBox="0 0 33.79 15.753">
  <g id="arrow-bar-left" transform="translate(-4.497 -10.123)">
    <path id="Path_398" data-name="Path 398" d="M13.171,10.454a1.125,1.125,0,0,0-1.593,0L4.828,17.2a1.125,1.125,0,0,0,0,1.593l6.75,6.75a1.126,1.126,0,1,0,1.593-1.593L7.216,18l5.956-5.954a1.125,1.125,0,0,0,0-1.593Z" fill-rule="evenodd"/>
    <path id="Path_399" data-name="Path 399" d="M37.349,16.875H7.891c-1.251,0-2.266.587-2.266,1.311S6.64,19.5,7.891,19.5H37.349C38.6,19.5,38.6,16.875,37.349,16.875Z" transform="translate(0 -0.371)" fill-rule="evenodd"/>
  </g>
</svg>
